<mxfile host="65bd71144e">
    <diagram id="vnUm_FQlFw-wfIJW9HKE" name="Page-1">
        <mxGraphModel dx="1707" dy="1298" grid="1" gridSize="10" guides="1" tooltips="1" connect="1" arrows="1" fold="1" page="1" pageScale="1" pageWidth="1654" pageHeight="2336" math="0" shadow="0">
            <root>
                <mxCell id="0"/>
                <mxCell id="1" parent="0"/>
                <mxCell id="VcYzZ7AECSM5LdjoIxmg-3" value="" style="whiteSpace=wrap;html=1;" vertex="1" parent="1">
                    <mxGeometry x="320" y="100" width="900" height="1110" as="geometry"/>
                </mxCell>
                <mxCell id="VcYzZ7AECSM5LdjoIxmg-23" style="edgeStyle=none;shape=connector;rounded=1;html=1;entryX=0;entryY=0;entryDx=0;entryDy=0;labelBackgroundColor=default;strokeColor=default;strokeWidth=3;fontFamily=Helvetica;fontSize=20;fontColor=default;startArrow=none;startFill=0;endArrow=none;endFill=0;" edge="1" parent="1" source="VcYzZ7AECSM5LdjoIxmg-2" target="VcYzZ7AECSM5LdjoIxmg-22">
                    <mxGeometry relative="1" as="geometry"/>
                </mxCell>
                <mxCell id="VcYzZ7AECSM5LdjoIxmg-2" value="&lt;font style=&quot;font-size: 20px;&quot;&gt;&lt;b&gt;GameMaster&lt;/b&gt;&lt;/font&gt;" style="shape=umlActor;verticalLabelPosition=bottom;verticalAlign=top;html=1;outlineConnect=0;aspect=fixed;" vertex="1" parent="1">
                    <mxGeometry x="60" y="470" width="195" height="390" as="geometry"/>
                </mxCell>
                <mxCell id="Si45mnx1yo_rYDjhlf1i-1" value="Iniciar SesiÃ³n" style="ellipse;whiteSpace=wrap;html=1;" vertex="1" parent="1">
                    <mxGeometry x="600" y="180" width="340" height="80" as="geometry"/>
                </mxCell>
                <mxCell id="VcYzZ7AECSM5LdjoIxmg-7" style="edgeStyle=none;shape=connector;rounded=1;html=1;labelBackgroundColor=default;strokeColor=default;strokeWidth=3;fontFamily=Helvetica;fontSize=11;fontColor=default;endArrow=none;endFill=0;exitX=0;exitY=1;exitDx=0;exitDy=0;" edge="1" parent="1" source="VcYzZ7AECSM5LdjoIxmg-5" target="VcYzZ7AECSM5LdjoIxmg-2">
                    <mxGeometry relative="1" as="geometry"/>
                </mxCell>
                <mxCell id="VcYzZ7AECSM5LdjoIxmg-11" style="edgeStyle=none;shape=connector;rounded=1;html=1;entryX=0.5;entryY=1;entryDx=0;entryDy=0;labelBackgroundColor=default;strokeColor=default;strokeWidth=3;fontFamily=Helvetica;fontSize=11;fontColor=default;endArrow=block;endFill=1;dashed=1;startArrow=none;startFill=0;" edge="1" parent="1" source="VcYzZ7AECSM5LdjoIxmg-5" target="Si45mnx1yo_rYDjhlf1i-1">
                    <mxGeometry relative="1" as="geometry"/>
                </mxCell>
                <mxCell id="Si45mnx1yo_rYDjhlf1i-11" value="&amp;lt;&amp;lt;includes&amp;gt;&amp;gt;" style="edgeLabel;html=1;align=center;verticalAlign=middle;resizable=0;points=[];fontSize=17;" connectable="0" vertex="1" parent="VcYzZ7AECSM5LdjoIxmg-11">
                    <mxGeometry x="-0.2636" y="1" relative="1" as="geometry">
                        <mxPoint x="1" y="-10" as="offset"/>
                    </mxGeometry>
                </mxCell>
                <mxCell id="VcYzZ7AECSM5LdjoIxmg-5" value="Crear cuenta" style="ellipse;whiteSpace=wrap;html=1;" vertex="1" parent="1">
                    <mxGeometry x="600" y="360" width="340" height="80" as="geometry"/>
                </mxCell>
                <mxCell id="VcYzZ7AECSM5LdjoIxmg-17" style="edgeStyle=none;shape=connector;rounded=1;html=1;labelBackgroundColor=default;strokeColor=default;strokeWidth=3;fontFamily=Helvetica;fontSize=20;fontColor=default;startArrow=none;startFill=0;endArrow=none;endFill=0;" edge="1" parent="1" source="Si45mnx1yo_rYDjhlf1i-3" target="VcYzZ7AECSM5LdjoIxmg-16">
                    <mxGeometry relative="1" as="geometry"/>
                </mxCell>
                <mxCell id="Si45mnx1yo_rYDjhlf1i-3" value="Crear Personaje" style="ellipse;whiteSpace=wrap;html=1;" vertex="1" parent="1">
                    <mxGeometry x="810" y="610" width="340" height="80" as="geometry"/>
                </mxCell>
                <mxCell id="VcYzZ7AECSM5LdjoIxmg-9" style="edgeStyle=none;shape=connector;rounded=1;html=1;labelBackgroundColor=default;strokeColor=default;strokeWidth=3;fontFamily=Helvetica;fontSize=11;fontColor=default;endArrow=none;endFill=0;exitX=0;exitY=0.5;exitDx=0;exitDy=0;" edge="1" parent="1" source="Si45mnx1yo_rYDjhlf1i-4" target="VcYzZ7AECSM5LdjoIxmg-2">
                    <mxGeometry relative="1" as="geometry"/>
                </mxCell>
                <mxCell id="Si45mnx1yo_rYDjhlf1i-4" value="Crear Partida" style="ellipse;whiteSpace=wrap;html=1;" vertex="1" parent="1">
                    <mxGeometry x="400" y="610" width="340" height="80" as="geometry"/>
                </mxCell>
                <mxCell id="VcYzZ7AECSM5LdjoIxmg-10" style="edgeStyle=none;shape=connector;rounded=1;html=1;labelBackgroundColor=default;strokeColor=default;strokeWidth=3;fontFamily=Helvetica;fontSize=11;fontColor=default;endArrow=none;endFill=0;exitX=0;exitY=0;exitDx=0;exitDy=0;" edge="1" parent="1" source="Si45mnx1yo_rYDjhlf1i-5" target="VcYzZ7AECSM5LdjoIxmg-2">
                    <mxGeometry relative="1" as="geometry"/>
                </mxCell>
                <mxCell id="VcYzZ7AECSM5LdjoIxmg-19" style="edgeStyle=none;shape=connector;rounded=1;html=1;labelBackgroundColor=default;strokeColor=default;strokeWidth=3;fontFamily=Helvetica;fontSize=20;fontColor=default;startArrow=none;startFill=0;endArrow=none;endFill=0;exitX=1;exitY=0;exitDx=0;exitDy=0;" edge="1" parent="1" source="Si45mnx1yo_rYDjhlf1i-5" target="VcYzZ7AECSM5LdjoIxmg-16">
                    <mxGeometry relative="1" as="geometry"/>
                </mxCell>
                <mxCell id="Si45mnx1yo_rYDjhlf1i-5" value="Seleccionar Partida" style="ellipse;whiteSpace=wrap;html=1;" vertex="1" parent="1">
                    <mxGeometry x="600" y="860" width="340" height="80" as="geometry"/>
                </mxCell>
                <mxCell id="VcYzZ7AECSM5LdjoIxmg-6" style="edgeStyle=none;html=1;exitX=0;exitY=1;exitDx=0;exitDy=0;strokeWidth=3;endArrow=none;endFill=0;" edge="1" parent="1" source="Si45mnx1yo_rYDjhlf1i-1" target="VcYzZ7AECSM5LdjoIxmg-2">
                    <mxGeometry relative="1" as="geometry"/>
                </mxCell>
                <mxCell id="VcYzZ7AECSM5LdjoIxmg-14" value="Jugar" style="ellipse;whiteSpace=wrap;html=1;" vertex="1" parent="1">
                    <mxGeometry x="827" y="1010" width="340" height="80" as="geometry"/>
                </mxCell>
                <mxCell id="VcYzZ7AECSM5LdjoIxmg-18" style="edgeStyle=none;shape=connector;rounded=1;html=1;entryX=1;entryY=0;entryDx=0;entryDy=0;labelBackgroundColor=default;strokeColor=default;strokeWidth=3;fontFamily=Helvetica;fontSize=20;fontColor=default;startArrow=none;startFill=0;endArrow=none;endFill=0;" edge="1" parent="1" source="VcYzZ7AECSM5LdjoIxmg-16" target="VcYzZ7AECSM5LdjoIxmg-14">
                    <mxGeometry relative="1" as="geometry"/>
                </mxCell>
                <mxCell id="VcYzZ7AECSM5LdjoIxmg-20" style="edgeStyle=none;shape=connector;rounded=1;html=1;entryX=1;entryY=1;entryDx=0;entryDy=0;labelBackgroundColor=default;strokeColor=default;strokeWidth=3;fontFamily=Helvetica;fontSize=20;fontColor=default;startArrow=none;startFill=0;endArrow=none;endFill=0;" edge="1" parent="1" source="VcYzZ7AECSM5LdjoIxmg-16" target="Si45mnx1yo_rYDjhlf1i-1">
                    <mxGeometry relative="1" as="geometry"/>
                </mxCell>
                <mxCell id="VcYzZ7AECSM5LdjoIxmg-21" style="edgeStyle=none;shape=connector;rounded=1;html=1;entryX=1;entryY=1;entryDx=0;entryDy=0;labelBackgroundColor=default;strokeColor=default;strokeWidth=3;fontFamily=Helvetica;fontSize=20;fontColor=default;startArrow=none;startFill=0;endArrow=none;endFill=0;" edge="1" parent="1" source="VcYzZ7AECSM5LdjoIxmg-16" target="VcYzZ7AECSM5LdjoIxmg-5">
                    <mxGeometry relative="1" as="geometry"/>
                </mxCell>
                <mxCell id="VcYzZ7AECSM5LdjoIxmg-16" value="&lt;font style=&quot;font-size: 20px;&quot;&gt;&lt;b&gt;Jugador&lt;/b&gt;&lt;/font&gt;" style="shape=umlActor;verticalLabelPosition=bottom;verticalAlign=top;html=1;outlineConnect=0;aspect=fixed;" vertex="1" parent="1">
                    <mxGeometry x="1350" y="460" width="195" height="390" as="geometry"/>
                </mxCell>
                <mxCell id="VcYzZ7AECSM5LdjoIxmg-22" value="Gestionar partida" style="ellipse;whiteSpace=wrap;html=1;" vertex="1" parent="1">
                    <mxGeometry x="410" y="1010" width="340" height="80" as="geometry"/>
                </mxCell>
            </root>
        </mxGraphModel>
    </diagram>
</mxfile>